<?xml version="1.0" encoding="UTF-8" standalone="no"?>
<svg
   xmlns:dc="http://purl.org/dc/elements/1.1/"
   xmlns:cc="http://creativecommons.org/ns#"
   xmlns:rdf="http://www.w3.org/1999/02/22-rdf-syntax-ns#"
   xmlns:svg="http://www.w3.org/2000/svg"
   xmlns="http://www.w3.org/2000/svg"
   viewBox="0 0 680.39852 103.83573"
   height="103.83573"
   width="680.3985"
   xml:space="preserve"
   id="svg2"
   version="1.1"><metadata
     id="metadata8"><rdf:RDF><cc:Work
         rdf:about=""><dc:format>image/svg+xml</dc:format><dc:type
           rdf:resource="http://purl.org/dc/dcmitype/StillImage" /><dc:title></dc:title></cc:Work></rdf:RDF></metadata><defs
     id="defs6"><clipPath
       id="clipPath18"
       clipPathUnits="userSpaceOnUse"><path
         id="path16"
         d="M 0,612.283 H 858.898 V 0 H 0 Z" /></clipPath></defs><g
     transform="matrix(1.3333333,0,0,-1.3333333,-232.39906,460.10692)"
     id="g10"><g
       style="fill:#04b1c7;fill-opacity:1"
       transform="translate(342.1909,340.4059)"
       id="g20"><path
         id="path22"
         style="fill:#04b1c7;fill-opacity:1;fill-rule:nonzero;stroke:none"
         d="m 0,0 c -2.301,2.97 -5.775,4.674 -9.533,4.674 h -18.774 c -2.924,0 -5.645,-1.06 -7.765,-2.845 -2.152,1.824 -4.874,2.845 -7.771,2.845 H -71.958 L -92.05,-73.202 h 9.372 l 17.691,68.566 h 19.046 c 1.421,0 2.737,-0.644 3.608,-1.768 0.87,-1.124 1.166,-2.558 0.811,-3.935 l -16.219,-62.863 h 9.372 10e-4 l 16.806,65.143 c 0.521,2.016 2.338,3.423 4.419,3.423 h 15.511 c 1.422,0 2.737,-0.644 3.609,-1.768 0.87,-1.124 1.166,-2.558 0.81,-3.935 l -16.219,-62.863 h 9.372 L 2.144,-10.397 C 3.082,-6.759 2.301,-2.97 0,0" /></g><g
       style="fill:#7d7d7d;fill-opacity:1"
       transform="translate(435.3745,276.5426)"
       id="g24"><path
         id="path26"
         style="fill:#7d7d7d;fill-opacity:1;fill-rule:nonzero;stroke:none"
         d="M 0,0 C -1.422,0 -2.737,0.646 -3.608,1.769 -4.479,2.893 -4.775,4.326 -4.419,5.703 L 11.792,68.537 H 2.419 L -13.785,5.732 c -0.939,-3.638 -0.156,-7.428 2.144,-10.397 2.302,-2.971 5.776,-4.674 9.534,-4.674 H 49.984 L 52.395,0 Z" /></g><g
       style="fill:#7d7d7d;fill-opacity:1"
       transform="translate(516.1343,345.0797)"
       id="g28"><path
         id="path30"
         style="fill:#7d7d7d;fill-opacity:1;fill-rule:nonzero;stroke:none"
         d="m 0,0 -20.092,-77.876 h 9.373 L 9.373,0 Z" /></g><g
       style="fill:#7d7d7d;fill-opacity:1"
       transform="translate(684.5982,345.0797)"
       id="g32"><path
         id="path34"
         style="fill:#7d7d7d;fill-opacity:1;fill-rule:nonzero;stroke:none"
         d="m 0,0 h -12.897 l -47.693,-45.626 27.759,-31.914 0.293,-0.336 h 12.66 L -47.82,-45.75 Z" /></g><g
       style="fill:#7d7d7d;fill-opacity:1"
       transform="translate(598.0884,340.4064)"
       id="g36"><path
         id="path38"
         style="fill:#7d7d7d;fill-opacity:1;fill-rule:nonzero;stroke:none"
         d="m 0,0 c -2.302,2.97 -5.775,4.673 -9.533,4.673 h -52.092 l -20.092,-77.876 h 9.372 l 17.691,68.567 h 43.021 c 1.422,0 2.737,-0.645 3.608,-1.769 0.87,-1.123 1.166,-2.558 0.81,-3.934 l -16.218,-62.864 h 9.372 L 2.145,-10.398 C 3.082,-6.76 2.301,-2.97 0,0" /></g><g
       style="fill:#7d7d7d;fill-opacity:1"
       transform="translate(615.0767,345.0797)"
       id="g40"><path
         id="path42"
         style="fill:#7d7d7d;fill-opacity:1;fill-rule:nonzero;stroke:none"
         d="m 0,0 -20.093,-77.876 h 9.373 L 9.373,0 Z" /></g><g
       style="fill:#04b1c7;fill-opacity:1"
       transform="translate(208.2603,335.7702)"
       id="g44"><path
         id="path46"
         style="fill:#04b1c7;fill-opacity:1;fill-rule:nonzero;stroke:none"
         d="m 0,0 h 43.074 l 2.403,9.31 H 0.241 c -9.939,0 -18.615,-6.722 -21.097,-16.346 -1.697,-6.574 -0.285,-13.422 3.874,-18.789 4.157,-5.365 10.435,-8.444 17.223,-8.444 h 14.053 c 3.888,0 7.483,-1.762 9.865,-4.835 2.381,-3.075 3.19,-6.997 2.219,-10.762 -1.422,-5.512 -6.392,-9.362 -12.084,-9.362 h -45.845 l -2.41,-9.338 h 47.994 c 9.947,0 18.629,6.726 21.113,16.356 1.697,6.578 0.285,13.431 -3.876,18.801 -4.161,5.37 -10.443,8.45 -17.237,8.45 H 0 c -3.888,0 -7.483,1.763 -9.865,4.836 -2.381,3.074 -3.191,6.996 -2.219,10.761 C -10.662,-3.85 -5.692,0 0,0" /></g><g
       style="fill:#04b1c7;fill-opacity:1"
       transform="translate(375.8199,335.7702)"
       id="g48"><path
         id="path50"
         style="fill:#04b1c7;fill-opacity:1;fill-rule:nonzero;stroke:none"
         d="m 0,0 h 43.074 l 2.404,9.31 H 0.241 c -9.939,0 -18.615,-6.722 -21.097,-16.346 -1.697,-6.574 -0.285,-13.422 3.874,-18.789 4.157,-5.365 10.435,-8.444 17.223,-8.444 h 14.053 c 3.889,0 7.484,-1.762 9.865,-4.835 2.381,-3.075 3.191,-6.997 2.219,-10.762 -1.422,-5.512 -6.392,-9.362 -12.084,-9.362 h -45.845 l -2.41,-9.338 h 47.994 c 9.947,0 18.629,6.726 21.113,16.356 1.697,6.578 0.285,13.431 -3.876,18.801 -4.161,5.37 -10.443,8.45 -17.237,8.45 H 0 c -3.888,0 -7.483,1.763 -9.865,4.836 -2.381,3.074 -3.19,6.996 -2.219,10.761 C -10.662,-3.85 -5.692,0 0,0" /></g></g></svg>